Coordinates
version=1
nRows=6
nColumns=46
inDegrees=yes

Units are S.I. units (second, meters, Newtons, ...)
Angles are in degrees.

endheader
time	pelvis_tilt	pelvis_list	pelvis_rotation	pelvis_tx	pelvis_ty	pelvis_tz	bb_angle	bb_tx	bb_ty	bb_tz	hip_flexion_r	hip_adduction_r	hip_rotation_r	knee_angle_r	knee_angle_r_beta	ankle_angle_r	subtalar_angle_r	mtp_angle_r	crank_angle_r	hip_flexion_l	hip_adduction_l	hip_rotation_l	knee_angle_l	knee_angle_l_beta	ankle_angle_l	subtalar_angle_l	mtp_angle_l	crank_angle_l	lumbar_extension	lumbar_bending	lumbar_rotation	arm_flex_r	arm_add_r	arm_rot_r	elbow_flex_r	pro_sup_r	wrist_flex_r	wrist_dev_r	arm_flex_l	arm_add_l	arm_rot_l	elbow_flex_l	pro_sup_l	wrist_flex_l	wrist_dev_l
      7.50500000	    -18.21483497	     11.47066197	     -3.85696254	      0.07900437	      1.00099856	     -0.17856738	      0.00000000	      0.50000000	      0.00000000	      0.25000000	     50.74535331	    -10.81338136	      0.89174569	     33.67057529	      0.58766240	    -13.34338838	     -2.74398923	      0.00000000	      0.00000000	     95.89275299	     -2.53388159	      3.14375403	    115.90828770	      2.02298125	    -26.47567321	     -8.86029826	      0.00000000	      0.00000000	    -52.09722457	    -10.86716172	     -2.75448759	     88.41852568	    -16.17710860	     36.41862510	     48.79117049	     40.01554888	      0.00000000	      0.00000000	     88.60468981	     -1.71759853	     21.02306975	     44.39999019	     41.40606643	      0.00000000	      0.00000000
      7.51000000	    -18.27255359	     11.59557092	     -3.37229894	      0.07954257	      1.00215224	     -0.17843266	      0.00000000	      0.50000000	      0.00000000	      0.25000000	     49.66012854	    -11.48612176	      0.11285867	     33.07866846	      0.57733168	    -13.61757744	     -2.18290127	      0.00000000	      0.00000000	     97.68800934	     -2.27102488	      3.17472134	    115.78857426	      2.02089186	    -28.75884706	     -8.54234052	      0.00000000	      0.00000000	    -52.29725167	    -10.84729032	     -3.31994175	     88.34677951	    -16.09811914	     36.19816319	     48.74156750	     40.04737301	      0.00000000	      0.00000000	     88.60232371	     -1.81471681	     21.12186499	     44.85710456	     41.42721896	      0.00000000	      0.00000000
      7.51500000	    -18.55848421	     11.76327663	     -3.13090414	      0.07983634	      1.00288565	     -0.17783944	      0.00000000	      0.50000000	      0.00000000	      0.25000000	     48.94645149	    -11.84860152	     -0.17577660	     32.64820976	      0.56981876	    -13.76870631	     -1.86902213	      0.00000000	      0.00000000	     99.59403156	     -2.29230716	      3.18483188	    115.63775728	      2.01825960	    -30.46883780	     -7.99819542	      0.00000000	      0.00000000	    -52.24100171	    -11.08596984	     -3.68985989	     88.24332788	    -16.07558989	     36.05277135	     48.64869480	     40.04633762	      0.00000000	      0.00000000	     88.62880687	     -1.82083436	     21.22577648	     45.14933228	     41.45830127	      0.00000000	      0.00000000
      7.52000000	    -18.69865791	     11.83470061	     -2.99288026	      0.07985764	      1.00343024	     -0.17774069	      0.00000000	      0.50000000	      0.00000000	      0.25000000	     48.27038571	    -12.17826467	     -0.64435227	     32.56222915	      0.56831811	    -13.71110777	     -1.51649543	      0.00000000	      0.00000000	    101.41252610	     -2.40235552	      3.29571284	    115.53493252	      2.01646497	    -32.13669011	     -7.48924823	      0.00000000	      0.00000000	    -52.28990128	    -11.15448388	     -4.17145407	     88.20974546	    -15.02928807	     34.71034768	     48.02347579	     40.09226772	      0.00000000	      0.00000000	     88.53710231	     -2.57213861	     21.87295005	     46.31805229	     41.44492977	      0.00000000	      0.00000000
      7.52500000	    -18.96911510	     11.80560156	     -2.72971869	      0.07998919	      1.00398561	     -0.17764979	      0.00000000	      0.50000000	      0.00000000	      0.25000000	     47.73893701	    -12.43889557	     -1.07947111	     32.65597005	      0.56995420	    -13.53226006	     -1.37125836	      0.00000000	      0.00000000	    103.17977431	     -2.42285021	      3.50497402	    115.34139805	      2.01308716	    -33.19759996	     -6.66739513	      0.00000000	      0.00000000	    -52.20745777	    -11.18137838	     -4.41281654	     88.14034251	    -15.01958182	     34.51879545	     47.90931710	     40.09686802	      0.00000000	      0.00000000	     88.57439653	     -2.50329513	     21.96079880	     46.44722276	     41.43608593	      0.00000000	      0.00000000
      7.53000000	    -19.15866724	     11.77147853	     -2.54432402	      0.08001968	      1.00452538	     -0.17795217	      0.00000000	      0.50000000	      0.00000000	      0.25000000	     47.25217472	    -12.70147981	     -1.52401701	     32.93067480	      0.57474870	    -13.27126330	     -1.28186732	      0.00000000	      0.00000000	    104.75905770	     -2.36162764	      3.65750617	    115.14632268	      2.00968245	    -33.95142538	     -6.06377189	      0.00000000	      0.00000000	    -52.19689921	    -11.18834540	     -4.58428879	     88.10105475	    -14.93909977	     34.33980591	     47.82979476	     40.09189172	      0.00000000	      0.00000000	     88.65745252	     -2.40982008	     22.02373414	     46.59861542	     41.44404411	      0.00000000	      0.00000000
